<svg width="114" height="114" fill="none" xmlns="http://www.w3.org/2000/svg"><rect width="114" height="114" rx="16" fill="#312E81"/><path d="M64.138 54.615 17.92 16.1C15.967 14.472 13 15.862 13 18.405v16.197a3 3 0 0 0 1.07 2.297l21.128 17.747a3 3 0 0 1-.056 4.64L14.127 76.099A3 3 0 0 0 13 78.442v14.424c0 2.496 2.871 3.9 4.842 2.368l46.217-35.946a3 3 0 0 0 .079-4.673ZM98 85H70a3 3 0 0 0-3 3v8a3 3 0 0 0 3 3h28a3 3 0 0 0 3-3v-8a3 3 0 0 0-3-3Z" fill="#212E5A"/><path d="M68.138 51.615 21.92 13.1C19.967 11.472 17 12.862 17 15.405v16.197a3 3 0 0 0 1.07 2.297l21.128 17.747a3 3 0 0 1-.056 4.64L18.127 73.099A3 3 0 0 0 17 75.442v14.424c0 2.496 2.871 3.9 4.842 2.368l46.217-35.946a3 3 0 0 0 .079-4.673ZM102 82H74a3 3 0 0 0-3 3v8a3 3 0 0 0 3 3h28a3 3 0 0 0 3-3v-8a3 3 0 0 0-3-3Z" fill="#fff"/></svg>